ffmpeg started on 2019-08-16 at 13:07:45
Report written to "ffmpeg-20190816-130745.log"
Command line:
ffmpeg -r 25 -i "_tmp%07d.png" -vframes 552 -vcodec mpeg4 -b 2000k -report -y testphysics.avi
ffmpeg version 4.0 Copyright (c) 2000-2018 the FFmpeg developers
  built with gcc 7.2.0 (crosstool-NG fa8859cb)
  configuration: --prefix=/home/aramakrishnan/anaconda2/envs/tensorflow --cc=/opt/conda/conda-bld/ffmpeg_1531088893642/_build_env/bin/x86_64-conda_cos6-linux-gnu-cc --disable-doc --enable-shared --enable-static --enable-zlib --enable-pic --enable-gpl --enable-version3 --disable-nonfree --enable-hardcoded-tables --enable-avresample --enable-libfreetype --disable-openssl --disable-gnutls --enable-libvpx --enable-pthreads --enable-libopus --enable-postproc --disable-libx264
  libavutil      56. 14.100 / 56. 14.100
  libavcodec     58. 18.100 / 58. 18.100
  libavformat    58. 12.100 / 58. 12.100
  libavdevice    58.  3.100 / 58.  3.100
  libavfilter     7. 16.100 /  7. 16.100
  libavresample   4.  0.  0 /  4.  0.  0
  libswscale      5.  1.100 /  5.  1.100
  libswresample   3.  1.100 /  3.  1.100
  libpostproc    55.  1.100 / 55.  1.100
Splitting the commandline.
Reading option '-r' ... matched as option 'r' (set frame rate (Hz value, fraction or abbreviation)) with argument '25'.
Reading option '-i' ... matched as input url with argument '_tmp%07d.png'.
Reading option '-vframes' ... matched as option 'vframes' (set the number of video frames to output) with argument '552'.
Reading option '-vcodec' ... matched as option 'vcodec' (force video codec ('copy' to copy stream)) with argument 'mpeg4'.
Reading option '-b' ... matched as option 'b' (video bitrate (please use -b:v)) with argument '2000k'.
Reading option '-report' ... matched as option 'report' (generate a report) with argument '1'.
Reading option '-y' ... matched as option 'y' (overwrite output files) with argument '1'.
Reading option 'testphysics.avi' ... matched as output url.
Finished splitting the commandline.
Parsing a group of options: global .
Applying option report (generate a report) with argument 1.
Applying option y (overwrite output files) with argument 1.
Successfully parsed a group of options.
Parsing a group of options: input url _tmp%07d.png.
Applying option r (set frame rate (Hz value, fraction or abbreviation)) with argument 25.
Successfully parsed a group of options.
Opening an input file: _tmp%07d.png.
[image2 @ 0x555555796140] Opening '_tmp0000000.png' for reading
[file @ 0x555555799d00] Setting default whitelist 'file,crypto'
[AVIOContext @ 0x555555798000] Statistics: 15963 bytes read, 0 seeks
[image2 @ 0x555555796140] Opening '_tmp0000001.png' for reading
[file @ 0x5555557993c0] Setting default whitelist 'file,crypto'
[AVIOContext @ 0x555555799e00] Statistics: 16244 bytes read, 0 seeks
[image2 @ 0x555555796140] Opening '_tmp0000002.png' for reading
[file @ 0x5555557993c0] Setting default whitelist 'file,crypto'
[AVIOContext @ 0x5555557a1480] Statistics: 16445 bytes read, 0 seeks
[image2 @ 0x555555796140] Opening '_tmp0000003.png' for reading
[file @ 0x5555557a1480] Setting default whitelist 'file,crypto'
[AVIOContext @ 0x5555557a16c0] Statistics: 16607 bytes read, 0 seeks
[image2 @ 0x555555796140] Opening '_tmp0000004.png' for reading
[file @ 0x5555557a16c0] Setting default whitelist 'file,crypto'
[AVIOContext @ 0x5555557a19c0] Statistics: 16700 bytes read, 0 seeks
[image2 @ 0x555555796140] Opening '_tmp0000005.png' for reading
[file @ 0x5555557a19c0] Setting default whitelist 'file,crypto'
[AVIOContext @ 0x5555557a15c0] Statistics: 16750 bytes read, 0 seeks
[image2 @ 0x555555796140] Opening '_tmp0000006.png' for reading
[file @ 0x5555557a15c0] Setting default whitelist 'file,crypto'
[AVIOContext @ 0x5555557a1ac0] Statistics: 16752 bytes read, 0 seeks
[image2 @ 0x555555796140] Opening '_tmp0000007.png' for reading
[file @ 0x55555579a3c0] Setting default whitelist 'file,crypto'
[AVIOContext @ 0x55555579a5c0] Statistics: 16743 bytes read, 0 seeks
[image2 @ 0x555555796140] Opening '_tmp0000008.png' for reading
[file @ 0x5555557a1c40] Setting default whitelist 'file,crypto'
[AVIOContext @ 0x55555579a600] Statistics: 16743 bytes read, 0 seeks
[image2 @ 0x555555796140] Opening '_tmp0000009.png' for reading
[file @ 0x55555579a600] Setting default whitelist 'file,crypto'
[AVIOContext @ 0x55555579a440] Statistics: 16780 bytes read, 0 seeks
[image2 @ 0x555555796140] Opening '_tmp0000010.png' for reading
[file @ 0x55555579a440] Setting default whitelist 'file,crypto'
[AVIOContext @ 0x55555579a900] Statistics: 16832 bytes read, 0 seeks
[image2 @ 0x555555796140] Opening '_tmp0000011.png' for reading
[file @ 0x55555579a900] Setting default whitelist 'file,crypto'
[AVIOContext @ 0x55555579a740] Statistics: 16894 bytes read, 0 seeks
[image2 @ 0x555555796140] Opening '_tmp0000012.png' for reading
[file @ 0x55555579a740] Setting default whitelist 'file,crypto'
[AVIOContext @ 0x55555579ac00] Statistics: 16932 bytes read, 0 seeks
[image2 @ 0x555555796140] Opening '_tmp0000013.png' for reading
[file @ 0x55555579ac00] Setting default whitelist 'file,crypto'
[AVIOContext @ 0x55555579adc0] Statistics: 16940 bytes read, 0 seeks
[image2 @ 0x555555796140] Opening '_tmp0000014.png' for reading
[file @ 0x55555579adc0] Setting default whitelist 'file,crypto'
[AVIOContext @ 0x55555579afc0] Statistics: 16946 bytes read, 0 seeks
[image2 @ 0x555555796140] Opening '_tmp0000015.png' for reading
[file @ 0x55555579ab40] Setting default whitelist 'file,crypto'
[AVIOContext @ 0x55555579b0c0] Statistics: 16940 bytes read, 0 seeks
[image2 @ 0x555555796140] Opening '_tmp0000016.png' for reading
[file @ 0x55555579b0c0] Setting default whitelist 'file,crypto'
[AVIOContext @ 0x55555579b140] Statistics: 16934 bytes read, 0 seeks
[image2 @ 0x555555796140] Opening '_tmp0000017.png' for reading
[file @ 0x55555579b3c0] Setting default whitelist 'file,crypto'
[AVIOContext @ 0x55555579b080] Statistics: 16947 bytes read, 0 seeks
[image2 @ 0x555555796140] Opening '_tmp0000018.png' for reading
[file @ 0x55555579b240] Setting default whitelist 'file,crypto'
[AVIOContext @ 0x55555579b2c0] Statistics: 17010 bytes read, 0 seeks
[image2 @ 0x555555796140] Opening '_tmp0000019.png' for reading
[file @ 0x55555579b2c0] Setting default whitelist 'file,crypto'
[AVIOContext @ 0x55555579b700] Statistics: 17066 bytes read, 0 seeks
[image2 @ 0x555555796140] Opening '_tmp0000020.png' for reading
[file @ 0x55555579b700] Setting default whitelist 'file,crypto'
[AVIOContext @ 0x55555579ba00] Statistics: 17108 bytes read, 0 seeks
[image2 @ 0x555555796140] Opening '_tmp0000021.png' for reading
[file @ 0x55555579ba00] Setting default whitelist 'file,crypto'
[AVIOContext @ 0x55555579b7c0] Statistics: 17104 bytes read, 0 seeks
[image2 @ 0x555555796140] Opening '_tmp0000022.png' for reading
[file @ 0x55555579b7c0] Setting default whitelist 'file,crypto'
[AVIOContext @ 0x55555579bc40] Statistics: 17103 bytes read, 0 seeks
[image2 @ 0x555555796140] Opening '_tmp0000023.png' for reading
[file @ 0x55555579bf00] Setting default whitelist 'file,crypto'
[AVIOContext @ 0x55555579b8c0] Statistics: 17109 bytes read, 0 seeks
[image2 @ 0x555555796140] Opening '_tmp0000024.png' for reading
[file @ 0x55555579b8c0] Setting default whitelist 'file,crypto'
[AVIOContext @ 0x55555579bd80] Statistics: 17149 bytes read, 0 seeks
[image2 @ 0x555555796140] Opening '_tmp0000025.png' for reading
[file @ 0x55555579bd80] Setting default whitelist 'file,crypto'
[AVIOContext @ 0x5555557da380] Statistics: 17242 bytes read, 0 seeks
[image2 @ 0x555555796140] Opening '_tmp0000026.png' for reading
[file @ 0x55555579bbc0] Setting default whitelist 'file,crypto'
[AVIOContext @ 0x5555557da380] Statistics: 17370 bytes read, 0 seeks
[image2 @ 0x555555796140] Opening '_tmp0000027.png' for reading
[file @ 0x5555557da580] Setting default whitelist 'file,crypto'
[AVIOContext @ 0x5555557da440] Statistics: 17522 bytes read, 0 seeks
[image2 @ 0x555555796140] Opening '_tmp0000028.png' for reading
[file @ 0x5555557da440] Setting default whitelist 'file,crypto'
[AVIOContext @ 0x5555557da840] Statistics: 17634 bytes read, 0 seeks
[image2 @ 0x555555796140] Opening '_tmp0000029.png' for reading
[file @ 0x5555557da840] Setting default whitelist 'file,crypto'
[AVIOContext @ 0x5555557da700] Statistics: 17683 bytes read, 0 seeks
[image2 @ 0x555555796140] Opening '_tmp0000030.png' for reading
[file @ 0x5555557da700] Setting default whitelist 'file,crypto'
[AVIOContext @ 0x5555557dab40] Statistics: 17690 bytes read, 0 seeks
[image2 @ 0x555555796140] Opening '_tmp0000031.png' for reading
[file @ 0x5555557dab40] Setting default whitelist 'file,crypto'
[AVIOContext @ 0x5555557da9c0] Statistics: 17682 bytes read, 0 seeks
[image2 @ 0x555555796140] Opening '_tmp0000032.png' for reading
[file @ 0x5555557da9c0] Setting default whitelist 'file,crypto'
[AVIOContext @ 0x5555557daa40] Statistics: 17688 bytes read, 0 seeks
[image2 @ 0x555555796140] Opening '_tmp0000033.png' for reading
[file @ 0x5555557dae00] Setting default whitelist 'file,crypto'
[AVIOContext @ 0x5555557dafc0] Statistics: 17679 bytes read, 0 seeks
[image2 @ 0x555555796140] Opening '_tmp0000034.png' for reading
[file @ 0x5555557dafc0] Setting default whitelist 'file,crypto'
[AVIOContext @ 0x5555557db2c0] Statistics: 17679 bytes read, 0 seeks
[image2 @ 0x555555796140] Opening '_tmp0000035.png' for reading
[file @ 0x5555557db2c0] Setting default whitelist 'file,crypto'
[AVIOContext @ 0x5555557db100] Statistics: 17667 bytes read, 0 seeks
[image2 @ 0x555555796140] Opening '_tmp0000036.png' for reading
[file @ 0x5555557db100] Setting default whitelist 'file,crypto'
[AVIOContext @ 0x5555557db3c0] Statistics: 17760 bytes read, 0 seeks
[image2 @ 0x555555796140] Opening '_tmp0000037.png' for reading
[file @ 0x5555557db5c0] Setting default whitelist 'file,crypto'
[AVIOContext @ 0x5555557db100] Statistics: 17806 bytes read, 0 seeks
[image2 @ 0x555555796140] Opening '_tmp0000038.png' for reading
[file @ 0x5555557db780] Setting default whitelist 'file,crypto'
[AVIOContext @ 0x5555557db980] Statistics: 17862 bytes read, 0 seeks
[image2 @ 0x555555796140] Opening '_tmp0000039.png' for reading
[file @ 0x5555557db980] Setting default whitelist 'file,crypto'
[AVIOContext @ 0x5555557db6c0] Statistics: 17900 bytes read, 0 seeks
[image2 @ 0x555555796140] Opening '_tmp0000040.png' for reading
[file @ 0x5555557db8c0] Setting default whitelist 'file,crypto'
[AVIOContext @ 0x5555557dbb80] Statistics: 17910 bytes read, 0 seeks
[image2 @ 0x555555796140] Opening '_tmp0000041.png' for reading
[file @ 0x5555557dbb80] Setting default whitelist 'file,crypto'
[AVIOContext @ 0x5555557db6c0] Statistics: 17902 bytes read, 0 seeks
[image2 @ 0x555555796140] Opening '_tmp0000042.png' for reading
[file @ 0x5555557dbe80] Setting default whitelist 'file,crypto'
[AVIOContext @ 0x5555557dc040] Statistics: 17915 bytes read, 0 seeks
[image2 @ 0x555555796140] Opening '_tmp0000043.png' for reading
[file @ 0x5555557dc040] Setting default whitelist 'file,crypto'
[AVIOContext @ 0x5555557dc240] Statistics: 17941 bytes read, 0 seeks
[image2 @ 0x555555796140] Opening '_tmp0000044.png' for reading
[file @ 0x5555557dc240] Setting default whitelist 'file,crypto'
[AVIOContext @ 0x5555557dbf40] Statistics: 17932 bytes read, 0 seeks
[image2 @ 0x555555796140] Opening '_tmp0000045.png' for reading
[file @ 0x5555557dbf40] Setting default whitelist 'file,crypto'
[AVIOContext @ 0x5555557dc3c0] Statistics: 17930 bytes read, 0 seeks
[image2 @ 0x555555796140] Opening '_tmp0000046.png' for reading
[file @ 0x5555557dc3c0] Setting default whitelist 'file,crypto'
[AVIOContext @ 0x5555557dc440] Statistics: 17930 bytes read, 0 seeks
[image2 @ 0x555555796140] Opening '_tmp0000047.png' for reading
[file @ 0x5555557dc540] Setting default whitelist 'file,crypto'
[AVIOContext @ 0x5555557dc5c0] Statistics: 17928 bytes read, 0 seeks
[image2 @ 0x555555796140] Opening '_tmp0000048.png' for reading
[file @ 0x5555557dc7c0] Setting default whitelist 'file,crypto'
[AVIOContext @ 0x5555557dc840] Statistics: 17930 bytes read, 0 seeks
[image2 @ 0x555555796140] Opening '_tmp0000049.png' for reading
[file @ 0x5555557dc840] Setting default whitelist 'file,crypto'
[AVIOContext @ 0x5555557dcb40] Statistics: 17926 bytes read, 0 seeks
[image2 @ 0x555555796140] Opening '_tmp0000050.png' for reading
[file @ 0x5555557dcb40] Setting default whitelist 'file,crypto'
[AVIOContext @ 0x5555557dc980] Statistics: 17928 bytes read, 0 seeks
[image2 @ 0x555555796140] Opening '_tmp0000051.png' for reading
[file @ 0x5555557dcd40] Setting default whitelist 'file,crypto'
[AVIOContext @ 0x5555557dce80] Statistics: 17922 bytes read, 0 seeks
[image2 @ 0x555555796140] Opening '_tmp0000052.png' for reading
[file @ 0x5555557dce80] Setting default whitelist 'file,crypto'
[AVIOContext @ 0x5555557dc980] Statistics: 17915 bytes read, 0 seeks
[image2 @ 0x555555796140] Opening '_tmp0000053.png' for reading
[file @ 0x5555557dca40] Setting default whitelist 'file,crypto'
[AVIOContext @ 0x5555557dd240] Statistics: 17912 bytes read, 0 seeks
[image2 @ 0x555555796140] Opening '_tmp0000054.png' for reading
[file @ 0x5555557dd240] Setting default whitelist 'file,crypto'
[AVIOContext @ 0x5555557dd2c0] Statistics: 17926 bytes read, 0 seeks
[image2 @ 0x555555796140] Opening '_tmp0000055.png' for reading
[file @ 0x5555557dca40] Setting default whitelist 'file,crypto'
[AVIOContext @ 0x5555557dd300] Statistics: 17940 bytes read, 0 seeks
[image2 @ 0x555555796140] Opening '_tmp0000056.png' for reading
[file @ 0x5555557dd4c0] Setting default whitelist 'file,crypto'
[AVIOContext @ 0x5555557dd680] Statistics: 17952 bytes read, 0 seeks
[image2 @ 0x555555796140] Opening '_tmp0000057.png' for reading
[file @ 0x5555557dd680] Setting default whitelist 'file,crypto'
[AVIOContext @ 0x5555557dd880] Statistics: 17998 bytes read, 0 seeks
[image2 @ 0x555555796140] Opening '_tmp0000058.png' for reading
[file @ 0x5555557dd880] Setting default whitelist 'file,crypto'
[AVIOContext @ 0x5555557dda80] Statistics: 18106 bytes read, 0 seeks
[image2 @ 0x555555796140] Opening '_tmp0000059.png' for reading
[file @ 0x5555557dd600] Setting default whitelist 'file,crypto'
[AVIOContext @ 0x5555557dd9c0] Statistics: 18169 bytes read, 0 seeks
[image2 @ 0x555555796140] Opening '_tmp0000060.png' for reading
[file @ 0x5555557dda80] Setting default whitelist 'file,crypto'
[AVIOContext @ 0x5555557dde00] Statistics: 18200 bytes read, 0 seeks
[image2 @ 0x555555796140] Opening '_tmp0000061.png' for reading
[file @ 0x5555557dde00] Setting default whitelist 'file,crypto'
[AVIOContext @ 0x5555557ddc40] Statistics: 18187 bytes read, 0 seeks
[image2 @ 0x555555796140] Opening '_tmp0000062.png' for reading
[file @ 0x5555557ddfc0] Setting default whitelist 'file,crypto'
[AVIOContext @ 0x5555557ddc80] Statistics: 18234 bytes read, 0 seeks
[image2 @ 0x555555796140] Opening '_tmp0000063.png' for reading
[file @ 0x5555557ddc80] Setting default whitelist 'file,crypto'
[AVIOContext @ 0x5555557c2040] Statistics: 18270 bytes read, 0 seeks
[image2 @ 0x555555796140] Opening '_tmp0000064.png' for reading
[file @ 0x5555557c2040] Setting default whitelist 'file,crypto'
[AVIOContext @ 0x5555557c20c0] Statistics: 18296 bytes read, 0 seeks
[image2 @ 0x555555796140] Opening '_tmp0000065.png' for reading
[file @ 0x5555557c20c0] Setting default whitelist 'file,crypto'
[AVIOContext @ 0x5555557c22c0] Statistics: 18316 bytes read, 0 seeks
[image2 @ 0x555555796140] Opening '_tmp0000066.png' for reading
[file @ 0x5555557c22c0] Setting default whitelist 'file,crypto'
[AVIOContext @ 0x5555557c2540] Statistics: 18352 bytes read, 0 seeks
[image2 @ 0x555555796140] Opening '_tmp0000067.png' for reading
[file @ 0x5555557c2180] Setting default whitelist 'file,crypto'
[AVIOContext @ 0x5555557c23c0] Statistics: 18365 bytes read, 0 seeks
[image2 @ 0x555555796140] Opening '_tmp0000068.png' for reading
[file @ 0x5555557c2640] Setting default whitelist 'file,crypto'
[AVIOContext @ 0x5555557c2800] Statistics: 18410 bytes read, 0 seeks
[image2 @ 0x555555796140] Opening '_tmp0000069.png' for reading
[file @ 0x5555557c2280] Setting default whitelist 'file,crypto'
[AVIOContext @ 0x5555557c2900] Statistics: 18456 bytes read, 0 seeks
[image2 @ 0x555555796140] Opening '_tmp0000070.png' for reading
[file @ 0x5555557c2900] Setting default whitelist 'file,crypto'
[AVIOContext @ 0x5555557c2780] Statistics: 18494 bytes read, 0 seeks
[image2 @ 0x555555796140] Opening '_tmp0000071.png' for reading
[file @ 0x5555557c2780] Setting default whitelist 'file,crypto'
[AVIOContext @ 0x5555557c2800] Statistics: 18518 bytes read, 0 seeks
[image2 @ 0x555555796140] Opening '_tmp0000072.png' for reading
[file @ 0x5555557c2c00] Setting default whitelist 'file,crypto'
[AVIOContext @ 0x5555557c2a80] Statistics: 18523 bytes read, 0 seeks
[image2 @ 0x555555796140] Opening '_tmp0000073.png' for reading
[file @ 0x5555557c2dc0] Setting default whitelist 'file,crypto'
[AVIOContext @ 0x5555557c2f80] Statistics: 18516 bytes read, 0 seeks
[image2 @ 0x555555796140] Opening '_tmp0000074.png' for reading
[file @ 0x5555557c2f80] Setting default whitelist 'file,crypto'
[AVIOContext @ 0x5555557c3180] Statistics: 18528 bytes read, 0 seeks
[image2 @ 0x555555796140] Opening '_tmp0000075.png' for reading
[file @ 0x5555557c2d00] Setting default whitelist 'file,crypto'
[AVIOContext @ 0x5555557c3280] Statistics: 18567 bytes read, 0 seeks
[image2 @ 0x555555796140] Opening '_tmp0000076.png' for reading
[file @ 0x5555557c3280] Setting default whitelist 'file,crypto'
[AVIOContext @ 0x5555557c3100] Statistics: 18627 bytes read, 0 seeks
[image2 @ 0x555555796140] Opening '_tmp0000077.png' for reading
[file @ 0x5555557c3480] Setting default whitelist 'file,crypto'
[AVIOContext @ 0x5555557c3500] Statistics: 18680 bytes read, 0 seeks
[image2 @ 0x555555796140] Opening '_tmp0000078.png' for reading
[file @ 0x5555557c3340] Setting default whitelist 'file,crypto'
[AVIOContext @ 0x5555557c3740] Statistics: 18736 bytes read, 0 seeks
[image2 @ 0x555555796140] Opening '_tmp0000079.png' for reading
[file @ 0x5555557c3740] Setting default whitelist 'file,crypto'
[AVIOContext @ 0x5555557c3940] Statistics: 18758 bytes read, 0 seeks
[image2 @ 0x555555796140] Opening '_tmp0000080.png' for reading
[file @ 0x5555557c3940] Setting default whitelist 'file,crypto'
[AVIOContext @ 0x5555557c3c40] Statistics: 18786 bytes read, 0 seeks
[image2 @ 0x555555796140] Opening '_tmp0000081.png' for reading
[file @ 0x5555557c3800] Setting default whitelist 'file,crypto'
[AVIOContext @ 0x5555557c3c80] Statistics: 18790 bytes read, 0 seeks
[image2 @ 0x555555796140] Opening '_tmp0000082.png' for reading
[file @ 0x5555557c3a00] Setting default whitelist 'file,crypto'
[AVIOContext @ 0x5555557c3d80] Statistics: 18782 bytes read, 0 seeks
[image2 @ 0x555555796140] Opening '_tmp0000083.png' for reading
[file @ 0x5555557c3e80] Setting default whitelist 'file,crypto'
[AVIOContext @ 0x5555557c4040] Statistics: 18791 bytes read, 0 seeks
[image2 @ 0x555555796140] Opening '_tmp0000084.png' for reading
[file @ 0x5555557c3a00] Setting default whitelist 'file,crypto'
[AVIOContext @ 0x5555557c4080] Statistics: 18796 bytes read, 0 seeks
[image2 @ 0x555555796140] Opening '_tmp0000085.png' for reading
[file @ 0x5555557c4080] Setting default whitelist 'file,crypto'
[AVIOContext @ 0x5555557c4280] Statistics: 18783 bytes read, 0 seeks
[image2 @ 0x555555796140] Opening '_tmp0000086.png' for reading
[file @ 0x5555557c4280] Setting default whitelist 'file,crypto'
[AVIOContext @ 0x5555557c4440] Statistics: 18788 bytes read, 0 seeks
[image2 @ 0x555555796140] Opening '_tmp0000087.png' for reading
[file @ 0x5555557c4440] Setting default whitelist 'file,crypto'
[AVIOContext @ 0x5555557c41c0] Statistics: 18812 bytes read, 0 seeks
[image2 @ 0x555555796140] Opening '_tmp0000088.png' for reading
[file @ 0x5555557c4640] Setting default whitelist 'file,crypto'
[AVIOContext @ 0x5555557c4700] Statistics: 18856 bytes read, 0 seeks
[image2 @ 0x555555796140] Opening '_tmp0000089.png' for reading
[file @ 0x5555557c4700] Setting default whitelist 'file,crypto'
[AVIOContext @ 0x5555557c4a00] Statistics: 18876 bytes read, 0 seeks
[image2 @ 0x555555796140] Opening '_tmp0000090.png' for reading
[file @ 0x5555557c4a00] Setting default whitelist 'file,crypto'
[AVIOContext @ 0x5555557c47c0] Statistics: 18901 bytes read, 0 seeks
[image2 @ 0x555555796140] Opening '_tmp0000091.png' for reading
[file @ 0x5555557c47c0] Setting default whitelist 'file,crypto'
[AVIOContext @ 0x5555557c4b40] Statistics: 18915 bytes read, 0 seeks
[image2 @ 0x555555796140] Opening '_tmp0000092.png' for reading
[file @ 0x5555557c4b40] Setting default whitelist 'file,crypto'
[AVIOContext @ 0x5555557c4e00] Statistics: 18928 bytes read, 0 seeks
[image2 @ 0x555555796140] Opening '_tmp0000093.png' for reading
[file @ 0x5555557c4880] Setting default whitelist 'file,crypto'
[AVIOContext @ 0x5555557c4c80] Statistics: 19004 bytes read, 0 seeks
[image2 @ 0x555555796140] Opening '_tmp0000094.png' for reading
[file @ 0x5555557c4d40] Setting default whitelist 'file,crypto'
[AVIOContext @ 0x5555557c4dc0] Statistics: 19077 bytes read, 0 seeks
[image2 @ 0x555555796140] Opening '_tmp0000095.png' for reading
[file @ 0x5555557c4ec0] Setting default whitelist 'file,crypto'
[AVIOContext @ 0x5555557c4f40] Statistics: 19078 bytes read, 0 seeks
[image2 @ 0x555555796140] Opening '_tmp0000096.png' for reading
[file @ 0x5555557c5040] Setting default whitelist 'file,crypto'
[AVIOContext @ 0x5555557c5300] Statistics: 19065 bytes read, 0 seeks
[image2 @ 0x555555796140] Opening '_tmp0000097.png' for reading
[file @ 0x5555557c5300] Setting default whitelist 'file,crypto'
[AVIOContext @ 0x5555557c5600] Statistics: 19072 bytes read, 0 seeks
[image2 @ 0x555555796140] Opening '_tmp0000098.png' for reading
[file @ 0x5555557c5600] Setting default whitelist 'file,crypto'
[AVIOContext @ 0x5555557c5800] Statistics: 19069 bytes read, 0 seeks
[image2 @ 0x555555796140] Opening '_tmp0000099.png' for reading
[file @ 0x5555557c5800] Setting default whitelist 'file,crypto'
[AVIOContext @ 0x5555557c5880] Statistics: 19067 bytes read, 0 seeks
[image2 @ 0x555555796140] Opening '_tmp0000100.png' for reading
[file @ 0x5555557c5880] Setting default whitelist 'file,crypto'
[AVIOContext @ 0x5555557c5a80] Statistics: 19075 bytes read, 0 seeks
[image2 @ 0x555555796140] Opening '_tmp0000101.png' for reading
[file @ 0x5555557c5a80] Setting default whitelist 'file,crypto'
[AVIOContext @ 0x5555557ce100] Statistics: 19075 bytes read, 0 seeks
[image2 @ 0x555555796140] Opening '_tmp0000102.png' for reading
[file @ 0x5555557c5c40] Setting default whitelist 'file,crypto'
[AVIOContext @ 0x5555557ce200] Statistics: 19082 bytes read, 0 seeks
[image2 @ 0x555555796140] Opening '_tmp0000103.png' for reading
[file @ 0x5555557ce200] Setting default whitelist 'file,crypto'
[AVIOContext @ 0x5555557c5b80] Statistics: 19087 bytes read, 0 seeks
[image2 @ 0x555555796140] Opening '_tmp0000104.png' for reading
[file @ 0x5555557ce400] Setting default whitelist 'file,crypto'
[AVIOContext @ 0x5555557ce540] Statistics: 19156 bytes read, 0 seeks
[image2 @ 0x555555796140] Opening '_tmp0000105.png' for reading
[file @ 0x5555557ce540] Setting default whitelist 'file,crypto'
[AVIOContext @ 0x5555557ce740] Statistics: 19169 bytes read, 0 seeks
[image2 @ 0x555555796140] Opening '_tmp0000106.png' for reading
[file @ 0x5555557ce740] Setting default whitelist 'file,crypto'
[AVIOContext @ 0x5555557ce900] Statistics: 19181 bytes read, 0 seeks
[image2 @ 0x555555796140] Opening '_tmp0000107.png' for reading
[file @ 0x5555557ce900] Setting default whitelist 'file,crypto'
[AVIOContext @ 0x5555557ce680] Statistics: 19206 bytes read, 0 seeks
[image2 @ 0x555555796140] Opening '_tmp0000108.png' for reading
[file @ 0x5555557ce680] Setting default whitelist 'file,crypto'
[AVIOContext @ 0x5555557cea40] Statistics: 19223 bytes read, 0 seeks
[image2 @ 0x555555796140] Opening '_tmp0000109.png' for reading
[file @ 0x5555557ceb00] Setting default whitelist 'file,crypto'
[AVIOContext @ 0x5555557cee00] Statistics: 19236 bytes read, 0 seeks
[image2 @ 0x555555796140] Opening '_tmp0000110.png' for reading
[file @ 0x5555557cee00] Setting default whitelist 'file,crypto'
[AVIOContext @ 0x5555557cefc0] Statistics: 19270 bytes read, 0 seeks
[image2 @ 0x555555796140] Opening '_tmp0000111.png' for reading
[file @ 0x5555557cefc0] Setting default whitelist 'file,crypto'
[AVIOContext @ 0x5555557cf180] Statistics: 19284 bytes read, 0 seeks
[image2 @ 0x555555796140] Opening '_tmp0000112.png' for reading
[file @ 0x5555557cf180] Setting default whitelist 'file,crypto'
[AVIOContext @ 0x5555557cef00] Statistics: 19310 bytes read, 0 seeks
[image2 @ 0x555555796140] Opening '_tmp0000113.png' for reading
[file @ 0x5555557cef00] Setting default whitelist 'file,crypto'
[AVIOContext @ 0x5555557cf480] Statistics: 19325 bytes read, 0 seeks
[image2 @ 0x555555796140] Opening '_tmp0000114.png' for reading
[file @ 0x5555557cf480] Setting default whitelist 'file,crypto'
[AVIOContext @ 0x5555557cf640] Statistics: 19341 bytes read, 0 seeks
[image2 @ 0x555555796140] Opening '_tmp0000115.png' for reading
[file @ 0x5555557cf640] Setting default whitelist 'file,crypto'
[AVIOContext @ 0x5555557cf840] Statistics: 19362 bytes read, 0 seeks
[image2 @ 0x555555796140] Opening '_tmp0000116.png' for reading
[file @ 0x5555557cf840] Setting default whitelist 'file,crypto'
[AVIOContext @ 0x5555557cf8c0] Statistics: 19417 bytes read, 0 seeks
[image2 @ 0x555555796140] Opening '_tmp0000117.png' for reading
[file @ 0x5555557cf8c0] Setting default whitelist 'file,crypto'
[AVIOContext @ 0x5555557cfac0] Statistics: 19521 bytes read, 0 seeks
[image2 @ 0x555555796140] Opening '_tmp0000118.png' for reading
[file @ 0x5555557cfac0] Setting default whitelist 'file,crypto'
[AVIOContext @ 0x5555557cfb40] Statistics: 19602 bytes read, 0 seeks
[image2 @ 0x555555796140] Opening '_tmp0000119.png' for reading
[file @ 0x5555557cfb40] Setting default whitelist 'file,crypto'
[AVIOContext @ 0x5555557cfd40] Statistics: 19700 bytes read, 0 seeks
[image2 @ 0x555555796140] Opening '_tmp0000120.png' for reading
[file @ 0x5555557cfd40] Setting default whitelist 'file,crypto'
[AVIOContext @ 0x5555557cff00] Statistics: 19771 bytes read, 0 seeks
[image2 @ 0x555555796140] Opening '_tmp0000121.png' for reading
[file @ 0x5555557cff00] Setting default whitelist 'file,crypto'
[AVIOContext @ 0x5555557d0100] Statistics: 19805 bytes read, 0 seeks
[image2 @ 0x555555796140] Opening '_tmp0000122.png' for reading
[file @ 0x5555557cfcc0] Setting default whitelist 'file,crypto'
[AVIOContext @ 0x5555557d0040] Statistics: 19798 bytes read, 0 seeks
[image2 @ 0x555555796140] Opening '_tmp0000123.png' for reading
[file @ 0x5555557d0100] Setting default whitelist 'file,crypto'
[AVIOContext @ 0x5555557d0480] Statistics: 19799 bytes read, 0 seeks
[image2 @ 0x555555796140] Opening '_tmp0000124.png' for reading
[file @ 0x5555557d0480] Setting default whitelist 'file,crypto'
[AVIOContext @ 0x5555557d02c0] Statistics: 19801 bytes read, 0 seeks
[image2 @ 0x555555796140] Opening '_tmp0000125.png' for reading
[file @ 0x5555557d0100] Setting default whitelist 'file,crypto'
[AVIOContext @ 0x5555557d05c0] Statistics: 19839 bytes read, 0 seeks
[image2 @ 0x555555796140] Opening '_tmp0000126.png' for reading
[file @ 0x5555557d0680] Setting default whitelist 'file,crypto'
[AVIOContext @ 0x5555557d0700] Statistics: 19860 bytes read, 0 seeks
[image2 @ 0x555555796140] Opening '_tmp0000127.png' for reading
[file @ 0x5555557d0700] Setting default whitelist 'file,crypto'
[AVIOContext @ 0x5555557d0a40] Statistics: 19737 bytes read, 0 seeks
[image2 @ 0x555555796140] max_analyze_duration 5000000 reached at 5000000 microseconds st:0
Input #0, image2, from '_tmp%07d.png':
  Duration: 00:00:22.08, start: 0.000000, bitrate: N/A
    Stream #0:0, 127, 1/25: Video: png, rgba(pc), 640x480 [SAR 3937:3937 DAR 4:3], 25 fps, 25 tbr, 25 tbn, 25 tbc
Successfully opened the file.
Parsing a group of options: output url testphysics.avi.
Applying option vframes (set the number of video frames to output) with argument 552.
Applying option vcodec (force video codec ('copy' to copy stream)) with argument mpeg4.
Applying option b (video bitrate (please use -b:v)) with argument 2000k.
Please use -b:a or -b:v, -b is ambiguous
Successfully parsed a group of options.
Opening an output file: testphysics.avi.
[file @ 0x5555557d1d80] Setting default whitelist 'file,crypto'
Successfully opened the file.
detected 16 logical cores
Stream mapping:
  Stream #0:0 -> #0:0 (png (native) -> mpeg4 (native))
Press [q] to stop, [?] for help
cur_dts is invalid (this is harmless if it occurs once at the start per stream)
cur_dts is invalid (this is harmless if it occurs once at the start per stream)
cur_dts is invalid (this is harmless if it occurs once at the start per stream)
cur_dts is invalid (this is harmless if it occurs once at the start per stream)
cur_dts is invalid (this is harmless if it occurs once at the start per stream)
cur_dts is invalid (this is harmless if it occurs once at the start per stream)
cur_dts is invalid (this is harmless if it occurs once at the start per stream)
cur_dts is invalid (this is harmless if it occurs once at the start per stream)
cur_dts is invalid (this is harmless if it occurs once at the start per stream)
cur_dts is invalid (this is harmless if it occurs once at the start per stream)
cur_dts is invalid (this is harmless if it occurs once at the start per stream)
cur_dts is invalid (this is harmless if it occurs once at the start per stream)
cur_dts is invalid (this is harmless if it occurs once at the start per stream)
cur_dts is invalid (this is harmless if it occurs once at the start per stream)
cur_dts is invalid (this is harmless if it occurs once at the start per stream)
cur_dts is invalid (this is harmless if it occurs once at the start per stream)
[graph 0 input from stream 0:0 @ 0x55555579a600] Setting 'video_size' to value '640x480'
[graph 0 input from stream 0:0 @ 0x55555579a600] Setting 'pix_fmt' to value '26'
[graph 0 input from stream 0:0 @ 0x55555579a600] Setting 'time_base' to value '1/25'
[graph 0 input from stream 0:0 @ 0x55555579a600] Setting 'pixel_aspect' to value '3937/3937'
[graph 0 input from stream 0:0 @ 0x55555579a600] Setting 'sws_param' to value 'flags=2'
[graph 0 input from stream 0:0 @ 0x55555579a600] Setting 'frame_rate' to value '25/1'
[graph 0 input from stream 0:0 @ 0x55555579a600] w:640 h:480 pixfmt:rgba tb:1/25 fr:25/1 sar:3937/3937 sws_param:flags=2
[format @ 0x555555a444c0] Setting 'pix_fmts' to value 'yuv420p'
[auto_scaler_0 @ 0x555555799440] Setting 'flags' to value 'bicubic'
[auto_scaler_0 @ 0x555555799440] w:iw h:ih flags:'bicubic' interl:0
[format @ 0x555555a444c0] auto-inserting filter 'auto_scaler_0' between the filter 'Parsed_null_0' and the filter 'format'
[AVFilterGraph @ 0x555555a443c0] query_formats: 4 queried, 2 merged, 1 already done, 0 delayed
[auto_scaler_0 @ 0x555555799440] w:640 h:480 fmt:rgba sar:3937/3937 -> w:640 h:480 fmt:yuv420p sar:1/1 flags:0x4
[mpeg4 @ 0x5555557d10c0] intra_quant_bias = 0 inter_quant_bias = -64
[avi @ 0x5555557986c0] reserve_index_space:0 master_index_max_size:256
[avi @ 0x5555557986c0] duration_est:22.080, filesize_est:0.0GiB, master_index_max_size:256
Output #0, avi, to 'testphysics.avi':
  Metadata:
    ISFT            : Lavf58.12.100
    Stream #0:0, 0, 1/25: Video: mpeg4 (FMP4 / 0x34504D46), yuv420p, 640x480 [SAR 1:1 DAR 4:3], q=2-31, 2000 kb/s, 25 fps, 25 tbn, 25 tbc
    Metadata:
      encoder         : Lavc58.18.100 mpeg4
    Side data:
      cpb: bitrate max/min/avg: 0/0/2000000 buffer size: 0 vbv_delay: -1
Clipping frame in rate conversion by 0.000008
frame=   55 fps=0.0 q=2.0 size=       6kB time=00:00:02.20 bitrate=  20.9kbits/s speed=4.37x    [image2 @ 0x555555796140] Opening '_tmp0000128.png' for reading
[file @ 0x555555799f00] Setting default whitelist 'file,crypto'
[AVIOContext @ 0x555555f1be00] Statistics: 19772 bytes read, 0 seeks
[image2 @ 0x555555796140] Opening '_tmp0000129.png' for reading
[file @ 0x5555557dc500] Setting default whitelist 'file,crypto'
[AVIOContext @ 0x5555557ce840] Statistics: 19826 bytes read, 0 seeks
[image2 @ 0x555555796140] Opening '_tmp0000130.png' for reading
[file @ 0x5555557dc500] Setting default whitelist 'file,crypto'
[AVIOContext @ 0x5555557dc700] Statistics: 19901 bytes read, 0 seeks
[image2 @ 0x555555796140] Opening '_tmp0000131.png' for reading
[file @ 0x5555557c2fc0] Setting default whitelist 'file,crypto'
[AVIOContext @ 0x5555557cfac0] Statistics: 19992 bytes read, 0 seeks
[image2 @ 0x555555796140] Opening '_tmp0000132.png' for reading
[file @ 0x5555557ceb80] Setting default whitelist 'file,crypto'
[AVIOContext @ 0x5555564f35c0] Statistics: 20104 bytes read, 0 seeks
[image2 @ 0x555555796140] Opening '_tmp0000133.png' for reading
[file @ 0x5555557c4480] Setting default whitelist 'file,crypto'
[AVIOContext @ 0x5555557cf500] Statistics: 20129 bytes read, 0 seeks
[image2 @ 0x555555796140] Opening '_tmp0000134.png' for reading
[file @ 0x5555557c4440] Setting default whitelist 'file,crypto'
[AVIOContext @ 0x5555557cf340] Statistics: 20135 bytes read, 0 seeks
[image2 @ 0x555555796140] Opening '_tmp0000135.png' for reading
[file @ 0x5555557c2fc0] Setting default whitelist 'file,crypto'
[AVIOContext @ 0x55555579a800] Statistics: 20138 bytes read, 0 seeks
[image2 @ 0x555555796140] Opening '_tmp0000136.png' for reading
[file @ 0x5555557a1ec0] Setting default whitelist 'file,crypto'
[AVIOContext @ 0x5555557cfa00] Statistics: 20187 bytes read, 0 seeks
[image2 @ 0x555555796140] Opening '_tmp0000137.png' for reading
[file @ 0x5555557a1ac0] Setting default whitelist 'file,crypto'
[AVIOContext @ 0x5555557c44c0] Statistics: 20265 bytes read, 0 seeks
frame=  123 fps=123 q=2.0 size=     262kB time=00:00:04.92 bitrate= 435.6kbits/s speed= 4.9x    [image2 @ 0x555555796140] Opening '_tmp0000138.png' for reading
[file @ 0x5555557cedc0] Setting default whitelist 'file,crypto'
[AVIOContext @ 0x5555557cee40] Statistics: 20313 bytes read, 0 seeks
[image2 @ 0x555555796140] Opening '_tmp0000139.png' for reading
[file @ 0x5555557cf000] Setting default whitelist 'file,crypto'
[AVIOContext @ 0x5555557cf500] Statistics: 20333 bytes read, 0 seeks
[image2 @ 0x555555796140] Opening '_tmp0000140.png' for reading
[file @ 0x5555557cebc0] Setting default whitelist 'file,crypto'
[AVIOContext @ 0x5555557c4540] Statistics: 20379 bytes read, 0 seeks
[image2 @ 0x555555796140] Opening '_tmp0000141.png' for reading
[file @ 0x5555557a1980] Setting default whitelist 'file,crypto'
[AVIOContext @ 0x5555557c4580] Statistics: 20445 bytes read, 0 seeks
[image2 @ 0x555555796140] Opening '_tmp0000142.png' for reading
[file @ 0x5555557cee40] Setting default whitelist 'file,crypto'
[AVIOContext @ 0x5555557c43c0] Statistics: 20570 bytes read, 0 seeks
[image2 @ 0x555555796140] Opening '_tmp0000143.png' for reading
[file @ 0x5555557a3240] Setting default whitelist 'file,crypto'
[AVIOContext @ 0x5555557c3080] Statistics: 20619 bytes read, 0 seeks
[image2 @ 0x555555796140] Opening '_tmp0000144.png' for reading
[file @ 0x555556013580] Setting default whitelist 'file,crypto'
[AVIOContext @ 0x5555557c4440] Statistics: 20645 bytes read, 0 seeks
[image2 @ 0x555555796140] Opening '_tmp0000145.png' for reading
[file @ 0x5555557a3100] Setting default whitelist 'file,crypto'
[AVIOContext @ 0x5555557ce780] Statistics: 20668 bytes read, 0 seeks
[image2 @ 0x555555796140] Opening '_tmp0000146.png' for reading
[file @ 0x5555557a1ac0] Setting default whitelist 'file,crypto'
[AVIOContext @ 0x5555557dc080] Statistics: 20688 bytes read, 0 seeks
[image2 @ 0x555555796140] Opening '_tmp0000147.png' for reading
[file @ 0x555556013d80] Setting default whitelist 'file,crypto'
[AVIOContext @ 0x5555557c4240] Statistics: 20683 bytes read, 0 seeks
[image2 @ 0x555555796140] Opening '_tmp0000148.png' for reading
[file @ 0x5555557c2a80] Setting default whitelist 'file,crypto'
[AVIOContext @ 0x555555f1be00] Statistics: 20737 bytes read, 0 seeks
[image2 @ 0x555555796140] Opening '_tmp0000149.png' for reading
[file @ 0x5555557cff00] Setting default whitelist 'file,crypto'
[AVIOContext @ 0x55555579be80] Statistics: 20781 bytes read, 0 seeks
[image2 @ 0x555555796140] Opening '_tmp0000150.png' for reading
[file @ 0x5555557cf380] Setting default whitelist 'file,crypto'
[AVIOContext @ 0x5555557a1bc0] Statistics: 20839 bytes read, 0 seeks
[image2 @ 0x555555796140] Opening '_tmp0000151.png' for reading
[file @ 0x5555557cfa80] Setting default whitelist 'file,crypto'
[AVIOContext @ 0x5555557c4440] Statistics: 20922 bytes read, 0 seeks
[image2 @ 0x555555796140] Opening '_tmp0000152.png' for reading
[file @ 0x5555557cfe00] Setting default whitelist 'file,crypto'
[AVIOContext @ 0x5555557cfe80] Statistics: 20967 bytes read, 0 seeks
[image2 @ 0x555555796140] Opening '_tmp0000153.png' for reading
[file @ 0x555556013ac0] Setting default whitelist 'file,crypto'
[AVIOContext @ 0x5555557a30c0] Statistics: 21011 bytes read, 0 seeks
[image2 @ 0x555555796140] Opening '_tmp0000154.png' for reading
[file @ 0x5555560131c0] Setting default whitelist 'file,crypto'
[AVIOContext @ 0x555555a44240] Statistics: 21027 bytes read, 0 seeks
[image2 @ 0x555555796140] Opening '_tmp0000155.png' for reading
[file @ 0x5555557a3080] Setting default whitelist 'file,crypto'
[AVIOContext @ 0x5555557cf280] Statistics: 21037 bytes read, 0 seeks
[image2 @ 0x555555796140] Opening '_tmp0000156.png' for reading
[file @ 0x5555557cfe00] Setting default whitelist 'file,crypto'
[AVIOContext @ 0x5555557dc240] Statistics: 21048 bytes read, 0 seeks
[image2 @ 0x555555796140] Opening '_tmp0000157.png' for reading
[file @ 0x5555557cf600] Setting default whitelist 'file,crypto'
[AVIOContext @ 0x5555564f34c0] Statistics: 21045 bytes read, 0 seeks
[image2 @ 0x555555796140] Opening '_tmp0000158.png' for reading
[file @ 0x5555557cf680] Setting default whitelist 'file,crypto'
[AVIOContext @ 0x5555557cf280] Statistics: 21052 bytes read, 0 seeks
[image2 @ 0x555555796140] Opening '_tmp0000159.png' for reading
[file @ 0x5555557cfe00] Setting default whitelist 'file,crypto'
[AVIOContext @ 0x5555557c2d80] Statistics: 21085 bytes read, 0 seeks
[image2 @ 0x555555796140] Opening '_tmp0000160.png' for reading
[file @ 0x555555a44240] Setting default whitelist 'file,crypto'
[AVIOContext @ 0x5555557c30c0] Statistics: 21103 bytes read, 0 seeks
[image2 @ 0x555555796140] Opening '_tmp0000161.png' for reading
[file @ 0x5555560131c0] Setting default whitelist 'file,crypto'
[AVIOContext @ 0x5555557cffc0] Statistics: 21102 bytes read, 0 seeks
[image2 @ 0x555555796140] Opening '_tmp0000162.png' for reading
[file @ 0x5555557c43c0] Setting default whitelist 'file,crypto'
[AVIOContext @ 0x5555557c4240] Statistics: 21123 bytes read, 0 seeks
[image2 @ 0x555555796140] Opening '_tmp0000163.png' for reading
[file @ 0x5555557cf980] Setting default whitelist 'file,crypto'
[AVIOContext @ 0x5555557c2b40] Statistics: 21164 bytes read, 0 seeks
[image2 @ 0x555555796140] Opening '_tmp0000164.png' for reading
[file @ 0x555556013700] Setting default whitelist 'file,crypto'
[AVIOContext @ 0x555556013780] Statistics: 21196 bytes read, 0 seeks
[image2 @ 0x555555796140] Opening '_tmp0000165.png' for reading
[file @ 0x5555557cf440] Setting default whitelist 'file,crypto'
[AVIOContext @ 0x5555557c30c0] Statistics: 21206 bytes read, 0 seeks
[image2 @ 0x555555796140] Opening '_tmp0000166.png' for reading
[file @ 0x5555557d02c0] Setting default whitelist 'file,crypto'
[AVIOContext @ 0x555556013bc0] Statistics: 21207 bytes read, 0 seeks
[image2 @ 0x555555796140] Opening '_tmp0000167.png' for reading
[file @ 0x5555557cf980] Setting default whitelist 'file,crypto'
[AVIOContext @ 0x5555557c2b40] Statistics: 21256 bytes read, 0 seeks
[image2 @ 0x555555796140] Opening '_tmp0000168.png' for reading
[file @ 0x5555557cea80] Setting default whitelist 'file,crypto'
[AVIOContext @ 0x5555557d0200] Statistics: 21286 bytes read, 0 seeks
[image2 @ 0x555555796140] Opening '_tmp0000169.png' for reading
[file @ 0x5555557cec00] Setting default whitelist 'file,crypto'
[AVIOContext @ 0x5555557c2d80] Statistics: 21322 bytes read, 0 seeks
[image2 @ 0x555555796140] Opening '_tmp0000170.png' for reading
[file @ 0x555556013200] Setting default whitelist 'file,crypto'
[AVIOContext @ 0x5555557d0200] Statistics: 21355 bytes read, 0 seeks
[image2 @ 0x555555796140] Opening '_tmp0000171.png' for reading
[file @ 0x5555557a1ac0] Setting default whitelist 'file,crypto'
[AVIOContext @ 0x5555557cec00] Statistics: 21370 bytes read, 0 seeks
[image2 @ 0x555555796140] Opening '_tmp0000172.png' for reading
[file @ 0x555555f1b940] Setting default whitelist 'file,crypto'
[AVIOContext @ 0x555556013180] Statistics: 21448 bytes read, 0 seeks
[image2 @ 0x555555796140] Opening '_tmp0000173.png' for reading
[file @ 0x5555557d0200] Setting default whitelist 'file,crypto'
[AVIOContext @ 0x5555564f35c0] Statistics: 21503 bytes read, 0 seeks
[image2 @ 0x555555796140] Opening '_tmp0000174.png' for reading
[file @ 0x5555564f35c0] Setting default whitelist 'file,crypto'
[AVIOContext @ 0x5555557c4640] Statistics: 21557 bytes read, 0 seeks
[image2 @ 0x555555796140] Opening '_tmp0000175.png' for reading
[file @ 0x5555557cfb80] Setting default whitelist 'file,crypto'
[AVIOContext @ 0x5555557cf540] Statistics: 21569 bytes read, 0 seeks
[image2 @ 0x555555796140] Opening '_tmp0000176.png' for reading
[file @ 0x5555557cfc00] Setting default whitelist 'file,crypto'
[AVIOContext @ 0x555556013140] Statistics: 21581 bytes read, 0 seeks
[image2 @ 0x555555796140] Opening '_tmp0000177.png' for reading
[file @ 0x5555557a30c0] Setting default whitelist 'file,crypto'
[AVIOContext @ 0x555556013e40] Statistics: 21643 bytes read, 0 seeks
[image2 @ 0x555555796140] Opening '_tmp0000178.png' for reading
[file @ 0x5555557cee40] Setting default whitelist 'file,crypto'
[AVIOContext @ 0x5555557cfcc0] Statistics: 21684 bytes read, 0 seeks
[image2 @ 0x555555796140] Opening '_tmp0000179.png' for reading
[file @ 0x5555557c24c0] Setting default whitelist 'file,crypto'
[AVIOContext @ 0x5555557cfd00] Statistics: 21728 bytes read, 0 seeks
[image2 @ 0x555555796140] Opening '_tmp0000180.png' for reading
[file @ 0x5555557cf300] Setting default whitelist 'file,crypto'
[AVIOContext @ 0x5555557a1a80] Statistics: 21829 bytes read, 0 seeks
[image2 @ 0x555555796140] Opening '_tmp0000181.png' for reading
[file @ 0x5555557cf540] Setting default whitelist 'file,crypto'
[AVIOContext @ 0x5555557a1a80] Statistics: 21988 bytes read, 0 seeks
[image2 @ 0x555555796140] Opening '_tmp0000182.png' for reading
[file @ 0x555556013e40] Setting default whitelist 'file,crypto'
[AVIOContext @ 0x5555557cfd00] Statistics: 22164 bytes read, 0 seeks
[image2 @ 0x555555796140] Opening '_tmp0000183.png' for reading
[file @ 0x5555557cf840] Setting default whitelist 'file,crypto'
[AVIOContext @ 0x5555557c33c0] Statistics: 22310 bytes read, 0 seeks
[image2 @ 0x555555796140] Opening '_tmp0000184.png' for reading
[file @ 0x5555557ce7c0] Setting default whitelist 'file,crypto'
[AVIOContext @ 0x5555557a1b00] Statistics: 22320 bytes read, 0 seeks
[image2 @ 0x555555796140] Opening '_tmp0000185.png' for reading
[file @ 0x5555557cfac0] Setting default whitelist 'file,crypto'
[AVIOContext @ 0x5555557d0200] Statistics: 22337 bytes read, 0 seeks
[image2 @ 0x555555796140] Opening '_tmp0000186.png' for reading
[file @ 0x5555557ce9c0] Setting default whitelist 'file,crypto'
[AVIOContext @ 0x5555557cebc0] Statistics: 22356 bytes read, 0 seeks
[image2 @ 0x555555796140] Opening '_tmp0000187.png' for reading
[file @ 0x5555557cf300] Setting default whitelist 'file,crypto'
[AVIOContext @ 0x5555557a32c0] Statistics: 22376 bytes read, 0 seeks
[image2 @ 0x555555796140] Opening '_tmp0000188.png' for reading
[file @ 0x5555557cfd40] Setting default whitelist 'file,crypto'
[AVIOContext @ 0x555556013f40] Statistics: 22381 bytes read, 0 seeks
[image2 @ 0x555555796140] Opening '_tmp0000189.png' for reading
[file @ 0x5555557cea80] Setting default whitelist 'file,crypto'
[AVIOContext @ 0x5555557ceb00] Statistics: 22397 bytes read, 0 seeks
[image2 @ 0x555555796140] Opening '_tmp0000190.png' for reading
[file @ 0x5555557cf1c0] Setting default whitelist 'file,crypto'
[AVIOContext @ 0x5555557a32c0] Statistics: 22401 bytes read, 0 seeks
[image2 @ 0x555555796140] Opening '_tmp0000191.png' for reading
[file @ 0x5555557a2f40] Setting default whitelist 'file,crypto'
[AVIOContext @ 0x5555557cf800] Statistics: 22399 bytes read, 0 seeks
[image2 @ 0x555555796140] Opening '_tmp0000192.png' for reading
[file @ 0x5555557ce780] Setting default whitelist 'file,crypto'
[AVIOContext @ 0x555556013f40] Statistics: 22398 bytes read, 0 seeks
[image2 @ 0x555555796140] Opening '_tmp0000193.png' for reading
[file @ 0x5555557c2d80] Setting default whitelist 'file,crypto'
[AVIOContext @ 0x5555557cf340] Statistics: 22397 bytes read, 0 seeks
[image2 @ 0x555555796140] Opening '_tmp0000194.png' for reading
[file @ 0x5555557cf340] Setting default whitelist 'file,crypto'
[AVIOContext @ 0x5555557c2340] Statistics: 22393 bytes read, 0 seeks
[image2 @ 0x555555796140] Opening '_tmp0000195.png' for reading
[file @ 0x5555557a1c40] Setting default whitelist 'file,crypto'
[AVIOContext @ 0x5555557a1f00] Statistics: 22396 bytes read, 0 seeks
[image2 @ 0x555555796140] Opening '_tmp0000196.png' for reading
[file @ 0x5555557c2a40] Setting default whitelist 'file,crypto'
[AVIOContext @ 0x5555564f3280] Statistics: 22396 bytes read, 0 seeks
[image2 @ 0x555555796140] Opening '_tmp0000197.png' for reading
[file @ 0x5555557cfdc0] Setting default whitelist 'file,crypto'
[AVIOContext @ 0x5555564f3040] Statistics: 22396 bytes read, 0 seeks
[image2 @ 0x555555796140] Opening '_tmp0000198.png' for reading
[file @ 0x5555557a19c0] Setting default whitelist 'file,crypto'
[AVIOContext @ 0x5555557a29c0] Statistics: 22396 bytes read, 0 seeks
[image2 @ 0x555555796140] Opening '_tmp0000199.png' for reading
[file @ 0x5555557cef00] Setting default whitelist 'file,crypto'
[AVIOContext @ 0x5555557cf200] Statistics: 22473 bytes read, 0 seeks
[image2 @ 0x555555796140] Opening '_tmp0000200.png' for reading
[file @ 0x5555557d0000] Setting default whitelist 'file,crypto'
[AVIOContext @ 0x5555557a32c0] Statistics: 22473 bytes read, 0 seeks
[image2 @ 0x555555796140] Opening '_tmp0000201.png' for reading
[file @ 0x5555557cea80] Setting default whitelist 'file,crypto'
[AVIOContext @ 0x5555557c2e40] Statistics: 22471 bytes read, 0 seeks
frame=  187 fps=124 q=2.0 size=     262kB time=00:00:07.48 bitrate= 286.5kbits/s speed=4.96x    [image2 @ 0x555555796140] Opening '_tmp0000202.png' for reading
[file @ 0x5555557a1a00] Setting default whitelist 'file,crypto'
[AVIOContext @ 0x5555557ce840] Statistics: 22477 bytes read, 0 seeks
[image2 @ 0x555555796140] Opening '_tmp0000203.png' for reading
[file @ 0x5555557d0240] Setting default whitelist 'file,crypto'
[AVIOContext @ 0x5555557cef00] Statistics: 22495 bytes read, 0 seeks
[image2 @ 0x555555796140] Opening '_tmp0000204.png' for reading
[file @ 0x5555557cef00] Setting default whitelist 'file,crypto'
[AVIOContext @ 0x555556013d00] Statistics: 22530 bytes read, 0 seeks
[image2 @ 0x555555796140] Opening '_tmp0000205.png' for reading
[file @ 0x5555557a3380] Setting default whitelist 'file,crypto'
[AVIOContext @ 0x5555557a30c0] Statistics: 22547 bytes read, 0 seeks
[image2 @ 0x555555796140] Opening '_tmp0000206.png' for reading
[file @ 0x5555557d0080] Setting default whitelist 'file,crypto'
[AVIOContext @ 0x55555579be80] Statistics: 22556 bytes read, 0 seeks
[image2 @ 0x555555796140] Opening '_tmp0000207.png' for reading
[file @ 0x5555557a21c0] Setting default whitelist 'file,crypto'
[AVIOContext @ 0x555556013200] Statistics: 22582 bytes read, 0 seeks
[image2 @ 0x555555796140] Opening '_tmp0000208.png' for reading
[file @ 0x555555f1b940] Setting default whitelist 'file,crypto'
[AVIOContext @ 0x555556013e80] Statistics: 22605 bytes read, 0 seeks
[image2 @ 0x555555796140] Opening '_tmp0000209.png' for reading
[file @ 0x55555579bf40] Setting default whitelist 'file,crypto'
[AVIOContext @ 0x555556013740] Statistics: 22625 bytes read, 0 seeks
[image2 @ 0x555555796140] Opening '_tmp0000210.png' for reading
[file @ 0x5555557a30c0] Setting default whitelist 'file,crypto'
[AVIOContext @ 0x5555557cf600] Statistics: 22655 bytes read, 0 seeks
[image2 @ 0x555555796140] Opening '_tmp0000211.png' for reading
[file @ 0x5555557c28c0] Setting default whitelist 'file,crypto'
[AVIOContext @ 0x555555a44240] Statistics: 22652 bytes read, 0 seeks
[image2 @ 0x555555796140] Opening '_tmp0000212.png' for reading
[file @ 0x555556013100] Setting default whitelist 'file,crypto'
[AVIOContext @ 0x5555557a2ac0] Statistics: 22672 bytes read, 0 seeks
[image2 @ 0x555555796140] Opening '_tmp0000213.png' for reading
[file @ 0x5555557a2400] Setting default whitelist 'file,crypto'
[AVIOContext @ 0x5555557a2480] Statistics: 22725 bytes read, 0 seeks
[image2 @ 0x555555796140] Opening '_tmp0000214.png' for reading
[file @ 0x555555799e80] Setting default whitelist 'file,crypto'
[AVIOContext @ 0x5555564f3280] Statistics: 22773 bytes read, 0 seeks
[image2 @ 0x555555796140] Opening '_tmp0000215.png' for reading
[file @ 0x555556013e80] Setting default whitelist 'file,crypto'
[AVIOContext @ 0x5555557ce8c0] Statistics: 22838 bytes read, 0 seeks
[image2 @ 0x555555796140] Opening '_tmp0000216.png' for reading
[file @ 0x5555557d0280] Setting default whitelist 'file,crypto'
[AVIOContext @ 0x555556013b00] Statistics: 22889 bytes read, 0 seeks
[image2 @ 0x555555796140] Opening '_tmp0000217.png' for reading
[file @ 0x5555557a2740] Setting default whitelist 'file,crypto'
[AVIOContext @ 0x5555564f3280] Statistics: 22895 bytes read, 0 seeks
[image2 @ 0x555555796140] Opening '_tmp0000218.png' for reading
[file @ 0x5555557a2b00] Setting default whitelist 'file,crypto'
[AVIOContext @ 0x555555f1be00] Statistics: 22888 bytes read, 0 seeks
[image2 @ 0x555555796140] Opening '_tmp0000219.png' for reading
[file @ 0x5555557c2d00] Setting default whitelist 'file,crypto'
[AVIOContext @ 0x555555f1be00] Statistics: 22921 bytes read, 0 seeks
[image2 @ 0x555555796140] Opening '_tmp0000220.png' for reading
[file @ 0x5555557d0300] Setting default whitelist 'file,crypto'
[AVIOContext @ 0x555555a44240] Statistics: 22955 bytes read, 0 seeks
[image2 @ 0x555555796140] Opening '_tmp0000221.png' for reading
[file @ 0x55555579a800] Setting default whitelist 'file,crypto'
[AVIOContext @ 0x5555557d0200] Statistics: 23028 bytes read, 0 seeks
[image2 @ 0x555555796140] Opening '_tmp0000222.png' for reading
[file @ 0x5555557d02c0] Setting default whitelist 'file,crypto'
[AVIOContext @ 0x5555557cf480] Statistics: 23111 bytes read, 0 seeks
[image2 @ 0x555555796140] Opening '_tmp0000223.png' for reading
[file @ 0x5555557cf140] Setting default whitelist 'file,crypto'
[AVIOContext @ 0x5555557a30c0] Statistics: 23175 bytes read, 0 seeks
[image2 @ 0x555555796140] Opening '_tmp0000224.png' for reading
[file @ 0x555556013580] Setting default whitelist 'file,crypto'
[AVIOContext @ 0x5555557ce740] Statistics: 23264 bytes read, 0 seeks
[image2 @ 0x555555796140] Opening '_tmp0000225.png' for reading
[file @ 0x5555557cf140] Setting default whitelist 'file,crypto'
[AVIOContext @ 0x5555557a2c40] Statistics: 23377 bytes read, 0 seeks
[image2 @ 0x555555796140] Opening '_tmp0000226.png' for reading
[file @ 0x555556013ac0] Setting default whitelist 'file,crypto'
[AVIOContext @ 0x555555f1be00] Statistics: 23465 bytes read, 0 seeks
[image2 @ 0x555555796140] Opening '_tmp0000227.png' for reading
[file @ 0x5555557c2e00] Setting default whitelist 'file,crypto'
[AVIOContext @ 0x5555557a1c80] Statistics: 23475 bytes read, 0 seeks
[image2 @ 0x555555796140] Opening '_tmp0000228.png' for reading
[file @ 0x5555557c3600] Setting default whitelist 'file,crypto'
[AVIOContext @ 0x555556013180] Statistics: 23474 bytes read, 0 seeks
[image2 @ 0x555555796140] Opening '_tmp0000229.png' for reading
[file @ 0x5555557a2ac0] Setting default whitelist 'file,crypto'
[AVIOContext @ 0x555556013100] Statistics: 23484 bytes read, 0 seeks
[image2 @ 0x555555796140] Opening '_tmp0000230.png' for reading
[file @ 0x555556013700] Setting default whitelist 'file,crypto'
[AVIOContext @ 0x5555557d0080] Statistics: 23485 bytes read, 0 seeks
[image2 @ 0x555555796140] Opening '_tmp0000231.png' for reading
[file @ 0x555556013780] Setting default whitelist 'file,crypto'
[AVIOContext @ 0x555556013180] Statistics: 23537 bytes read, 0 seeks
[image2 @ 0x555555796140] Opening '_tmp0000232.png' for reading
[file @ 0x555556013180] Setting default whitelist 'file,crypto'
[AVIOContext @ 0x555555f1be00] Statistics: 23572 bytes read, 0 seeks
[image2 @ 0x555555796140] Opening '_tmp0000233.png' for reading
[file @ 0x5555557a2c00] Setting default whitelist 'file,crypto'
[AVIOContext @ 0x5555564f3040] Statistics: 23646 bytes read, 0 seeks
[image2 @ 0x555555796140] Opening '_tmp0000234.png' for reading
[file @ 0x555556013240] Setting default whitelist 'file,crypto'
[AVIOContext @ 0x5555557c2b40] Statistics: 23709 bytes read, 0 seeks
[image2 @ 0x555555796140] Opening '_tmp0000235.png' for reading
[file @ 0x555556013740] Setting default whitelist 'file,crypto'
[AVIOContext @ 0x5555557a32c0] Statistics: 23784 bytes read, 0 seeks
[image2 @ 0x555555796140] Opening '_tmp0000236.png' for reading
[file @ 0x5555560136c0] Setting default whitelist 'file,crypto'
[AVIOContext @ 0x55555579a740] Statistics: 23818 bytes read, 0 seeks
[image2 @ 0x555555796140] Opening '_tmp0000237.png' for reading
[file @ 0x5555557a2500] Setting default whitelist 'file,crypto'
[AVIOContext @ 0x5555557ce900] Statistics: 23815 bytes read, 0 seeks
[image2 @ 0x555555796140] Opening '_tmp0000238.png' for reading
[file @ 0x5555557a2bc0] Setting default whitelist 'file,crypto'
[AVIOContext @ 0x555555f1be00] Statistics: 23822 bytes read, 0 seeks
[image2 @ 0x555555796140] Opening '_tmp0000239.png' for reading
[file @ 0x5555557cfd80] Setting default whitelist 'file,crypto'
[AVIOContext @ 0x555556013180] Statistics: 23819 bytes read, 0 seeks
[image2 @ 0x555555796140] Opening '_tmp0000240.png' for reading
[file @ 0x5555557cfe00] Setting default whitelist 'file,crypto'
[AVIOContext @ 0x555555f1be00] Statistics: 23846 bytes read, 0 seeks
[image2 @ 0x555555796140] Opening '_tmp0000241.png' for reading
[file @ 0x555556013cc0] Setting default whitelist 'file,crypto'
[AVIOContext @ 0x5555557c31c0] Statistics: 23854 bytes read, 0 seeks
[image2 @ 0x555555796140] Opening '_tmp0000242.png' for reading
[file @ 0x5555557c29c0] Setting default whitelist 'file,crypto'
[AVIOContext @ 0x5555557a1a80] Statistics: 23863 bytes read, 0 seeks
[image2 @ 0x555555796140] Opening '_tmp0000243.png' for reading
[file @ 0x555555799e80] Setting default whitelist 'file,crypto'
[AVIOContext @ 0x5555557a2740] Statistics: 23892 bytes read, 0 seeks
[image2 @ 0x555555796140] Opening '_tmp0000244.png' for reading
[file @ 0x555555f1b940] Setting default whitelist 'file,crypto'
[AVIOContext @ 0x5555557a32c0] Statistics: 23916 bytes read, 0 seeks
[image2 @ 0x555555796140] Opening '_tmp0000245.png' for reading
[file @ 0x5555557cf540] Setting default whitelist 'file,crypto'
[AVIOContext @ 0x5555557a2400] Statistics: 23937 bytes read, 0 seeks
[image2 @ 0x555555796140] Opening '_tmp0000246.png' for reading
[file @ 0x5555557cfcc0] Setting default whitelist 'file,crypto'
[AVIOContext @ 0x5555557c3400] Statistics: 23944 bytes read, 0 seeks
[image2 @ 0x555555796140] Opening '_tmp0000247.png' for reading
[file @ 0x5555557cf880] Setting default whitelist 'file,crypto'
[AVIOContext @ 0x5555557c29c0] Statistics: 23952 bytes read, 0 seeks
[image2 @ 0x555555796140] Opening '_tmp0000248.png' for reading
[file @ 0x5555557a2b00] Setting default whitelist 'file,crypto'
[AVIOContext @ 0x5555557a2300] Statistics: 23959 bytes read, 0 seeks
[image2 @ 0x555555796140] Opening '_tmp0000249.png' for reading
[file @ 0x5555557ce800] Setting default whitelist 'file,crypto'
[AVIOContext @ 0x5555557a1e40] Statistics: 23964 bytes read, 0 seeks
[image2 @ 0x555555796140] Opening '_tmp0000250.png' for reading
[file @ 0x5555557a1e40] Setting default whitelist 'file,crypto'
[AVIOContext @ 0x5555557a1ec0] Statistics: 23980 bytes read, 0 seeks
[image2 @ 0x555555796140] Opening '_tmp0000251.png' for reading
[file @ 0x5555557c2ec0] Setting default whitelist 'file,crypto'
[AVIOContext @ 0x5555557c26c0] Statistics: 24007 bytes read, 0 seeks
[image2 @ 0x555555796140] Opening '_tmp0000252.png' for reading
[file @ 0x5555564f3480] Setting default whitelist 'file,crypto'
[AVIOContext @ 0x5555557a25c0] Statistics: 24089 bytes read, 0 seeks
[image2 @ 0x555555796140] Opening '_tmp0000253.png' for reading
[file @ 0x5555557cf540] Setting default whitelist 'file,crypto'
[AVIOContext @ 0x5555557c33c0] Statistics: 24148 bytes read, 0 seeks
[image2 @ 0x555555796140] Opening '_tmp0000254.png' for reading
[file @ 0x5555557c2fc0] Setting default whitelist 'file,crypto'
[AVIOContext @ 0x555556013e00] Statistics: 24224 bytes read, 0 seeks
[image2 @ 0x555555796140] Opening '_tmp0000255.png' for reading
[file @ 0x5555557d0540] Setting default whitelist 'file,crypto'
[AVIOContext @ 0x5555557c29c0] Statistics: 24279 bytes read, 0 seeks
[image2 @ 0x555555796140] Opening '_tmp0000256.png' for reading
[file @ 0x555555a44300] Setting default whitelist 'file,crypto'
[AVIOContext @ 0x5555557c29c0] Statistics: 24350 bytes read, 0 seeks
[image2 @ 0x555555796140] Opening '_tmp0000257.png' for reading
[file @ 0x5555557cfcc0] Setting default whitelist 'file,crypto'
[AVIOContext @ 0x5555557cf840] Statistics: 24358 bytes read, 0 seeks
[image2 @ 0x555555796140] Opening '_tmp0000258.png' for reading
[file @ 0x5555557a2400] Setting default whitelist 'file,crypto'
[AVIOContext @ 0x5555557c26c0] Statistics: 24397 bytes read, 0 seeks
[image2 @ 0x555555796140] Opening '_tmp0000259.png' for reading
[file @ 0x5555557cfcc0] Setting default whitelist 'file,crypto'
[AVIOContext @ 0x5555557c3440] Statistics: 24414 bytes read, 0 seeks
[image2 @ 0x555555796140] Opening '_tmp0000260.png' for reading
[file @ 0x5555557cffc0] Setting default whitelist 'file,crypto'
[AVIOContext @ 0x5555557d0040] Statistics: 24469 bytes read, 0 seeks
[image2 @ 0x555555796140] Opening '_tmp0000261.png' for reading
[file @ 0x5555557a2a00] Setting default whitelist 'file,crypto'
[AVIOContext @ 0x5555557c29c0] Statistics: 24537 bytes read, 0 seeks
[image2 @ 0x555555796140] Opening '_tmp0000262.png' for reading
[file @ 0x5555557ce7c0] Setting default whitelist 'file,crypto'
[AVIOContext @ 0x5555557cf540] Statistics: 24554 bytes read, 0 seeks
[image2 @ 0x555555796140] Opening '_tmp0000263.png' for reading
[file @ 0x5555557cfd40] Setting default whitelist 'file,crypto'
[AVIOContext @ 0x555555f1be00] Statistics: 24559 bytes read, 0 seeks
frame=  249 fps=124 q=2.0 size=     518kB time=00:00:09.96 bitrate= 425.7kbits/s speed=4.96x    [image2 @ 0x555555796140] Opening '_tmp0000264.png' for reading
[file @ 0x5555557a18c0] Setting default whitelist 'file,crypto'
[AVIOContext @ 0x5555557a3080] Statistics: 24556 bytes read, 0 seeks
[image2 @ 0x555555796140] Opening '_tmp0000265.png' for reading
[file @ 0x5555557c2580] Setting default whitelist 'file,crypto'
[AVIOContext @ 0x555556013540] Statistics: 24545 bytes read, 0 seeks
[image2 @ 0x555555796140] Opening '_tmp0000266.png' for reading
[file @ 0x5555557c2600] Setting default whitelist 'file,crypto'
[AVIOContext @ 0x5555557a1c80] Statistics: 24548 bytes read, 0 seeks
[image2 @ 0x555555796140] Opening '_tmp0000267.png' for reading
[file @ 0x5555557cfd80] Setting default whitelist 'file,crypto'
[AVIOContext @ 0x5555557a2440] Statistics: 24552 bytes read, 0 seeks
[image2 @ 0x555555796140] Opening '_tmp0000268.png' for reading
[file @ 0x5555557a18c0] Setting default whitelist 'file,crypto'
[AVIOContext @ 0x555555a44240] Statistics: 24549 bytes read, 0 seeks
[image2 @ 0x555555796140] Opening '_tmp0000269.png' for reading
[file @ 0x5555557cfe00] Setting default whitelist 'file,crypto'
[AVIOContext @ 0x5555557a2180] Statistics: 24546 bytes read, 0 seeks
[image2 @ 0x555555796140] Opening '_tmp0000270.png' for reading
[file @ 0x55555579bf40] Setting default whitelist 'file,crypto'
[AVIOContext @ 0x555556013580] Statistics: 24552 bytes read, 0 seeks
[image2 @ 0x555555796140] Opening '_tmp0000271.png' for reading
[file @ 0x5555557c2d80] Setting default whitelist 'file,crypto'
[AVIOContext @ 0x5555557ceb80] Statistics: 24549 bytes read, 0 seeks
[image2 @ 0x555555796140] Opening '_tmp0000272.png' for reading
[file @ 0x5555557cf300] Setting default whitelist 'file,crypto'
[AVIOContext @ 0x5555557cf380] Statistics: 24547 bytes read, 0 seeks
[image2 @ 0x555555796140] Opening '_tmp0000273.png' for reading
[file @ 0x5555557a31c0] Setting default whitelist 'file,crypto'
[AVIOContext @ 0x5555557ceb80] Statistics: 24545 bytes read, 0 seeks
[image2 @ 0x555555796140] Opening '_tmp0000274.png' for reading
[file @ 0x5555564f3580] Setting default whitelist 'file,crypto'
[AVIOContext @ 0x5555557c2540] Statistics: 24554 bytes read, 0 seeks
[image2 @ 0x555555796140] Opening '_tmp0000275.png' for reading
[file @ 0x5555557c2600] Setting default whitelist 'file,crypto'
[AVIOContext @ 0x5555557c2780] Statistics: 24547 bytes read, 0 seeks
[image2 @ 0x555555796140] Opening '_tmp0000276.png' for reading
[file @ 0x5555557a31c0] Setting default whitelist 'file,crypto'
[AVIOContext @ 0x5555557c3340] Statistics: 24547 bytes read, 0 seeks
[image2 @ 0x555555796140] Opening '_tmp0000277.png' for reading
[file @ 0x5555557a1ec0] Setting default whitelist 'file,crypto'
[AVIOContext @ 0x5555557a2180] Statistics: 24544 bytes read, 0 seeks
[image2 @ 0x555555796140] Opening '_tmp0000278.png' for reading
[file @ 0x5555557c2e00] Setting default whitelist 'file,crypto'
[AVIOContext @ 0x5555557a1b00] Statistics: 24547 bytes read, 0 seeks
[image2 @ 0x555555796140] Opening '_tmp0000279.png' for reading
[file @ 0x555556013780] Setting default whitelist 'file,crypto'
[AVIOContext @ 0x5555557a3200] Statistics: 24551 bytes read, 0 seeks
[image2 @ 0x555555796140] Opening '_tmp0000280.png' for reading
[file @ 0x5555557a1b00] Setting default whitelist 'file,crypto'
[AVIOContext @ 0x5555557c2780] Statistics: 24543 bytes read, 0 seeks
